
<svg version="1.1" xmlns="http://www.w3.org/2000/svg" xmlns:xlink="http://www.w3.org/1999/xlink" x="0px" y="0px" viewBox="0 0 1000 1000" enable-background="new 0 0 1000 1000" xml:space="preserve">
<metadata> Svg Vector Icons : http://www.onlinewebfonts.com/icon </metadata>
<g><g transform="translate(0.000000,511.000000) scale(0.100000,-0.100000)"><path d="M2365.9,4231.3c-927.4-124.5-1720.6-737.7-2071.2-1596C162.5,2311.5,78.2,1851.6,105,1589.2c28.7-306.6,120.7-624.6,252.9-891C446,523.8,628,257.5,725.8,161.7c44.1-40.2,78.6-84.3,78.6-95.8c0-9.6,912-931.2,2027.1-2044.4C5034.9-4180,4889.3-4049.7,5073.2-4015.2c63.2,11.5,293.2,233.8,2098.1,2036.7C8284.5-865.3,9196.5,54.4,9196.5,64c0,7.7,44.1,63.2,97.7,122.6c385.1,421.5,641.9,1117.1,601.6,1632.5c-78.5,996.3-672.5,1833.6-1578.8,2224.5c-563.3,241.4-1233.9,272.1-1816.4,82.4c-578.6-189.7-1094-592.1-1408.3-1097.9c-44.1-74.7-86.2-136-92-136c-5.7,0-47.9,61.3-92,136c-371.7,599.7-1007.8,1038.5-1714.8,1178.3C3005.8,4242.8,2553.7,4258.2,2365.9,4231.3z M3017.3,3610.5c438.8-70.9,800.9-262.5,1111.3-586.3c321.9-337.2,480.9-680.2,561.4-1212.8c32.6-214.6,128.4-308.5,310.4-308.5c182,0,277.8,93.9,310.4,308.5c82.4,544.2,266.3,929.3,601.6,1260.7c366,358.3,875.6,567.1,1393,567.1c392.8,0,829.6-141.8,1153.4-373.6c143.7-101.5,398.5-366,494.3-513.5c174.4-262.5,300.8-620.8,329.6-933.1c26.8-285.5-78.5-680.2-262.5-979.1c-113-185.8-490.5-574.8-2693.9-2791.6L4998.5-3287.1L3176.4-1457.3C2174.3-451.4,1289.1,445.3,1212.4,535.3c-268.2,304.6-415.8,605.5-479,973.3c-24.9,151.4-26.8,210.8-9.6,358.3c99.6,800.9,638,1450.4,1402.5,1684.2C2415.7,3641.2,2712.7,3660.4,3017.3,3610.5z"/></g></g>
</svg>